# xmcd
#
# Track frame offsets: 
#        182
#        15050
#        26582
#        37770
#        47870
#        58232
#        69667
#        81105
#        97475
#        108462
#        121327
#        135600
#        147060
#        156515
#        166320
#        178085
#        186717
#        198012
#        208357
#        220057
#        233822
#        244347
#
# Disc length: 3406 seconds
#
# Revision: 0
# Processed by: cddbd v1.5.2PL0 Copyright (c) Steve Scherf et al.
# Submitted via: ExactAudioCopy v0.99pb5
#
DISCID=450d4c16
DTITLE=Bob Wills And His Texas Playboys - King Of Western Swing Vol.2 
DTITLE=In The Mood
DYEAR=1997
DGENRE=Country
TTITLE0=In The Mood
TTITLE1=Back Home In Indiana
TTITLE2=China Town
TTITLE3=Sweet Georgia Brown
TTITLE4=Tea For Two
TTITLE5=Elmer's Tune
TTITLE6=Fat Boy Rag
TTITLE7=Basin Street Blues
TTITLE8=Dinah
TTITLE9=I Hear You Talkin'
TTITLE10=Take The "A" Train
TTITLE11=Nobody's Sweetheart Now
TTITLE12=A Smooth One
TTITLE13=Honeysuckle Rose
TTITLE14=Lonesome Hearted Blues
TTITLE15=Crazy Rhythm
TTITLE16=C-Jam Blues
TTITLE17=Sugar Blues
TTITLE18=Straighten Up And Fly Right
TTITLE19=12th Street Rag
TTITLE20=Three Guitar Special
TTITLE21=St. Louis Blues
EXTD=
EXTT0=
EXTT1=
EXTT2=
EXTT3=
EXTT4=
EXTT5=
EXTT6=
EXTT7=
EXTT8=
EXTT9=
EXTT10=
EXTT11=
EXTT12=
EXTT13=
EXTT14=
EXTT15=
EXTT16=
EXTT17=
EXTT18=
EXTT19=
EXTT20=
EXTT21=
PLAYORDER=
